# xmcd CD database file
#
# Track frame offsets:
#	150
#	13843
#	24198
#	41290
#	56135
#	66823
#	97098
#	111398
#	125650
#	139038
#	155663
#
# Disc length: 2267 seconds
#
# Revision: 0
# Processed by: cddbd v1.5PL3 Copyright (c) Steve Scherf et al.
# Submitted via: Feurio! 1.66 - http://www.feurio.com
#
DISCID=9808d90b
DTITLE=Canned Heat - Rollin and Tumblin
DYEAR=1994
DGENRE=blues
TTITLE0=Rollin and Tumblin
TTITLE1=Bullfrog Blues
TTITLE2=Goin' Down Slow
TTITLE3=Dust my Broom
TTITLE4=Evil is going on
TTITLE5=Catfish Blues
TTITLE6=Help Me
TTITLE7=Big Road Blues
TTITLE8=Rich Woman
TTITLE9=The Story of my Love
TTITLE10=The Road Song
EXTD=Compilation
EXTT0=
EXTT1=
EXTT2=
EXTT3=
EXTT4=
EXTT5=
EXTT6=
EXTT7=
EXTT8=
EXTT9=
EXTT10=
PLAYORDER=
